<?xml version="1.0" standalone="no"?>
<!DOCTYPE svg PUBLIC "-//W3C//DTD SVG 20010904//EN"
 "http://www.w3.org/TR/2001/REC-SVG-20010904/DTD/svg10.dtd">
<svg version="1.0" xmlns="http://www.w3.org/2000/svg"
 width="300.000000pt" height="300.000000pt" viewBox="0 0 300.000000 300.000000"
 preserveAspectRatio="xMidYMid meet">
<metadata>
Created by potrace 1.10, written by Peter Selinger 2001-2011
</metadata>
<g transform="translate(0.000000,300.000000) scale(0.100000,-0.100000)"
fill="#000000" stroke="none">
<path d="M1373 2316 c-238 -58 -413 -281 -413 -526 0 -245 175 -469 411 -525
189 -44 372 8 509 145 105 105 160 234 160 376 0 150 -53 277 -160 385 -131
132 -327 188 -507 145z m296 -75 c60 -24 161 -88 161 -102 0 -5 -10 -9 -22 -9
-60 0 -161 -79 -151 -119 5 -19 -18 -73 -44 -102 -13 -15 -11 -19 15 -38 17
-11 59 -34 94 -50 101 -45 100 -43 101 -231 l0 -161 -48 -34 c-71 -51 -147
-76 -246 -82 l-86 -6 -18 44 c-22 56 -24 154 -2 194 8 17 33 50 55 72 55 56
65 79 66 144 1 59 -14 89 -43 89 -9 0 -43 -14 -75 -30 l-59 -30 -43 25 c-58
34 -76 32 -118 -15 -54 -60 -50 -89 19 -140 61 -45 79 -73 90 -140 4 -25 16
-56 26 -69 11 -13 19 -34 19 -47 0 -12 5 -35 10 -50 6 -15 8 -29 6 -31 -3 -3
-38 11 -80 31 -129 62 -234 191 -265 326 -14 59 -14 156 0 220 10 47 13 50 41
50 21 0 39 -10 61 -32 39 -42 47 -22 12 30 -23 34 -25 44 -15 62 11 20 17 22
59 15 25 -5 64 -9 86 -9 37 -1 41 2 58 39 28 59 63 92 106 99 41 6 91 40 91
60 0 8 -15 17 -32 21 -49 12 -53 12 -50 -9 2 -13 -1 -17 -11 -13 -8 3 -35 9
-61 12 -25 4 -46 11 -46 15 0 16 97 29 190 26 68 -3 110 -10 149 -25z m-356
-6 c4 -8 25 -24 49 -36 28 -14 38 -24 28 -27 -21 -7 -44 -32 -74 -80 l-27 -44
-74 7 c-76 7 -93 1 -121 -48 -11 -18 -54 -33 -54 -17 0 49 128 197 205 238 48
25 61 27 68 7z m581 -126 c42 -49 97 -174 108 -245 21 -124 -23 -288 -102
-384 l-29 -35 -10 28 c-6 16 -10 83 -8 155 3 155 -3 166 -110 219 -41 20 -78
43 -81 51 -2 8 3 29 12 48 9 19 16 45 16 58 0 29 33 59 91 85 26 12 52 28 59
36 18 21 25 19 54 -16z m-384 -344 c0 -34 -15 -85 -28 -95 -21 -15 -84 -101
-97 -133 -15 -37 -35 -50 -35 -22 0 8 -9 38 -20 68 -15 40 -31 62 -70 91 -56
43 -62 67 -28 103 26 28 33 28 91 3 l46 -21 58 25 c31 13 63 22 70 19 7 -3 13
-20 13 -38z"/>
<path d="M1802 2014 c-31 -22 -27 -49 11 -78 44 -34 80 -33 106 0 24 31 30 84
7 65 -8 -6 -19 -25 -26 -41 -15 -37 -25 -37 -73 -1 l-38 29 41 7 c23 4 44 4
47 1 8 -7 43 12 43 24 0 16 -94 11 -118 -6z"/>
<path d="M501 1434 c-38 -48 -29 -81 80 -297 56 -111 115 -220 130 -242 47
-65 112 -101 290 -161 194 -65 203 -66 207 -37 4 29 -38 50 -178 92 -134 40
-220 82 -259 127 -40 45 -231 425 -231 459 0 34 29 33 61 -2 29 -32 189 -295
189 -311 0 -25 74 -72 162 -101 106 -35 126 -38 135 -15 9 24 -15 39 -120 74
-62 20 -102 39 -112 53 -40 57 3 77 106 49 41 -11 105 -26 144 -32 135 -22
187 -58 285 -198 33 -47 49 -62 64 -60 36 5 29 35 -27 110 -64 86 -135 154
-183 174 -19 8 -89 26 -157 40 -67 14 -140 29 -162 34 -45 10 -82 4 -106 -16
-14 -12 -24 1 -93 116 -42 71 -90 138 -105 150 -42 29 -94 27 -120 -6z"/>
<path d="M2389 1445 c-29 -16 -52 -48 -134 -188 -51 -87 -60 -96 -74 -84 -27
24 -63 27 -131 11 -36 -8 -110 -24 -164 -34 -54 -11 -118 -29 -142 -40 -73
-36 -234 -229 -221 -264 12 -31 45 -17 78 32 99 146 160 190 294 212 39 7 103
21 144 32 82 22 121 15 121 -21 0 -30 -41 -56 -137 -86 -97 -30 -117 -43 -107
-68 9 -23 25 -22 132 14 88 29 162 76 162 101 0 13 168 287 193 316 28 31 57
29 57 -3 0 -33 -191 -414 -229 -458 -42 -47 -127 -89 -256 -127 -138 -41 -185
-64 -185 -91 0 -27 27 -35 59 -16 14 8 80 31 146 51 247 75 267 93 416 384
118 231 128 265 88 316 -23 30 -67 34 -110 11z"/>
</g>
</svg>
