<?xml version="1.0" standalone="no"?>
<!DOCTYPE svg PUBLIC "-//W3C//DTD SVG 20010904//EN"
 "http://www.w3.org/TR/2001/REC-SVG-20010904/DTD/svg10.dtd">
<svg version="1.0" xmlns="http://www.w3.org/2000/svg"
 width="300.000000pt" height="300.000000pt" viewBox="0 0 300.000000 300.000000"
 preserveAspectRatio="xMidYMid meet">
<metadata>
Created by potrace 1.10, written by Peter Selinger 2001-2011
</metadata>
<g transform="translate(0.000000,300.000000) scale(0.100000,-0.100000)"
fill="#000000" stroke="none">
<path d="M1650 2906 c-71 -20 -129 -54 -185 -107 -220 -208 -163 -566 113
-701 64 -32 72 -33 182 -33 108 0 119 2 180 31 163 78 250 214 250 388 0 104
-19 169 -74 248 -50 74 -119 130 -196 159 -69 26 -206 34 -270 15z m276 -65
c85 -40 147 -100 186 -179 41 -83 51 -208 23 -293 -34 -102 -114 -191 -212
-236 -76 -35 -198 -43 -277 -18 -278 87 -366 439 -164 647 113 116 296 148
444 79z"/>
<path d="M1762 2790 c-24 -5 -59 -19 -77 -30 -37 -23 -115 -106 -115 -123 0
-6 -19 -27 -41 -48 -34 -31 -40 -43 -34 -61 9 -29 9 -47 0 -75 -6 -18 -1 -29
22 -51 17 -15 38 -42 47 -61 48 -92 152 -161 244 -161 88 0 162 43 162 94 0
14 -11 38 -24 53 -23 26 -30 28 -97 28 -49 0 -73 4 -76 13 -3 9 12 12 54 12
85 0 102 20 99 118 -2 89 -14 102 -92 102 -29 0 -56 4 -59 10 -9 14 40 23 90
16 40 -6 47 -4 69 19 82 88 -22 176 -172 145z m151 -52 c14 -7 17 -16 11 -41
-3 -18 -8 -34 -10 -36 -2 -2 -23 1 -47 7 -63 16 -124 -3 -154 -47 -39 -58 -35
-61 82 -61 l105 0 0 -25 0 -25 -110 0 c-60 0 -110 -2 -110 -4 0 -2 -3 -11 -6
-20 -5 -14 8 -16 110 -16 l116 0 0 -25 c0 -24 -1 -24 -109 -27 l-109 -3 17
-34 c25 -53 61 -74 123 -74 30 0 64 5 76 12 19 10 22 9 28 -16 3 -16 7 -33 9
-40 6 -19 -56 -38 -125 -38 -47 1 -76 7 -108 23 -49 26 -99 90 -108 138 -5 29
-10 34 -35 34 -24 0 -29 4 -29 25 0 20 5 25 25 25 18 0 25 5 25 20 0 15 -7 20
-25 20 -20 0 -25 5 -25 25 0 21 5 25 28 25 25 0 31 6 40 38 14 46 64 107 104
128 58 30 164 36 211 12z"/>
<path d="M2523 2586 c-162 -53 -266 -193 -266 -356 0 -166 99 -304 255 -356
77 -25 207 -16 276 20 115 59 192 164 200 275 3 50 2 54 -10 36 -8 -11 -25
-48 -38 -83 -28 -77 -89 -147 -161 -187 -74 -40 -188 -47 -270 -16 -78 30
-141 88 -180 167 -81 164 -12 357 157 440 50 25 71 29 139 29 135 -1 240 -65
293 -178 16 -34 37 -80 48 -102 l18 -40 4 29 c14 108 -92 255 -223 311 -54 23
-188 29 -242 11z"/>
<path d="M2440 2470 c-26 -26 -25 -35 10 -100 35 -67 36 -77 8 -107 -18 -20
-20 -28 -12 -51 7 -18 7 -36 0 -54 -8 -23 -6 -32 13 -52 13 -14 35 -26 49 -28
21 -2 28 -10 33 -36 12 -61 61 -92 113 -72 26 10 40 31 50 83 5 22 12 27 35
27 35 0 76 44 65 69 -9 20 -9 52 0 72 5 10 -2 27 -18 46 l-25 29 34 60 c40 69
42 87 15 114 -44 44 -130 11 -160 -60 -15 -37 -28 -35 -53 11 -10 19 -27 42
-39 52 -28 24 -93 22 -118 -3z m145 -116 l39 -95 45 95 44 96 43 0 c24 0 44
-2 44 -5 0 -2 -25 -45 -55 -95 -30 -50 -55 -93 -55 -95 0 -3 18 -5 40 -5 33 0
40 -3 40 -20 0 -18 -7 -20 -55 -20 -52 0 -55 -1 -55 -25 0 -24 3 -25 55 -25
48 0 55 -2 55 -20 0 -18 -7 -20 -55 -20 l-55 0 0 -58 0 -59 -37 2 -38 3 -3 56
-3 56 -54 0 c-48 0 -55 2 -55 20 0 18 7 20 55 20 52 0 55 1 55 25 0 24 -3 25
-55 25 -48 0 -55 2 -55 20 0 17 7 20 45 20 l46 0 -37 68 c-21 37 -46 79 -56
94 -10 14 -18 29 -18 32 0 3 21 6 48 6 l47 0 40 -96z"/>
<path d="M1000 2124 c-160 -43 -285 -186 -309 -354 -26 -187 71 -367 244 -451
67 -32 75 -34 181 -34 107 0 112 1 186 38 174 85 269 265 239 451 -42 257
-289 418 -541 350z m263 -54 c73 -28 163 -109 200 -182 100 -197 20 -431 -181
-530 -60 -30 -73 -33 -161 -32 -76 0 -108 5 -153 23 -80 31 -159 106 -200 189
-31 62 -33 73 -33 172 0 93 3 112 27 162 48 103 153 190 264 218 58 14 171 5
237 -20z"/>
<path d="M1062 2038 c-9 -18 -39 -53 -66 -78 -77 -71 -94 -135 -57 -209 24
-46 37 -57 119 -101 36 -19 67 -40 69 -46 7 -21 -31 -25 -95 -13 -58 12 -64
11 -83 -7 -11 -11 -22 -36 -25 -55 -5 -28 -1 -39 21 -61 14 -15 40 -30 56 -33
17 -4 34 -17 41 -32 7 -15 26 -36 41 -47 26 -19 30 -19 55 -6 15 9 35 32 45
53 10 20 32 45 48 54 42 25 81 86 86 135 9 83 -46 156 -154 203 -72 32 -63 49
22 40 60 -6 63 -5 84 21 28 36 27 79 -4 109 -13 14 -30 25 -38 25 -7 0 -28 18
-46 40 -26 33 -38 40 -67 40 -29 0 -38 -5 -52 -32z m88 -43 c0 -26 4 -35 16
-35 9 0 34 -5 56 -12 37 -11 38 -13 32 -42 -8 -42 -18 -50 -43 -36 -30 16
-117 16 -135 0 -21 -16 -20 -54 0 -71 9 -8 48 -30 87 -49 47 -23 79 -47 94
-69 46 -69 18 -157 -64 -196 -37 -18 -42 -24 -45 -60 -3 -37 -5 -40 -35 -41
-32 -2 -33 0 -33 36 0 39 -11 50 -51 50 -11 0 -33 7 -49 15 -27 14 -28 17 -18
47 6 18 12 34 12 35 1 1 20 -4 41 -12 89 -32 165 -11 165 45 0 33 -22 51 -100
85 -25 11 -55 27 -66 35 -84 62 -67 178 32 222 44 19 46 21 41 54 -6 33 -5 34
29 34 32 0 34 -2 34 -35z"/>
<path d="M2090 1905 c-286 -81 -376 -447 -160 -649 70 -65 142 -97 238 -103
201 -13 366 117 403 319 30 166 -60 335 -218 410 -77 37 -181 46 -263 23z
m223 -51 c61 -20 139 -82 171 -137 14 -23 33 -72 42 -107 40 -157 -49 -330
-204 -394 -74 -31 -200 -28 -273 7 -71 34 -134 97 -168 167 -22 47 -26 68 -26
145 0 107 22 165 88 233 97 101 228 131 370 86z"/>
<path d="M2189 1801 c-65 -21 -129 -100 -129 -161 0 -13 -11 -38 -25 -56 -34
-45 -32 -79 7 -114 l31 -29 -36 -47 c-44 -56 -46 -85 -11 -113 24 -19 40 -21
169 -21 159 0 180 7 191 66 4 24 0 37 -18 59 -20 23 -35 29 -81 33 -31 2 -57
8 -57 11 0 13 24 31 40 31 26 0 53 37 53 72 0 36 -32 68 -68 68 -13 0 -25 6
-27 13 -10 26 4 37 47 37 35 0 48 5 64 26 47 60 9 124 -76 130 -26 2 -60 0
-74 -5z m132 -48 c13 -13 -6 -68 -22 -65 -61 15 -68 14 -94 -12 -21 -22 -26
-34 -23 -69 l3 -42 53 -3 c50 -3 52 -4 52 -33 0 -28 -2 -29 -48 -29 l-48 0 -1
-36 c-1 -20 -11 -50 -23 -66 l-21 -29 98 2 98 2 3 -37 3 -36 -155 0 c-155 0
-156 0 -156 23 0 12 14 35 31 51 34 32 49 64 49 102 0 21 -4 24 -40 24 -38 0
-40 2 -40 30 0 27 3 30 33 30 l32 0 0 64 c0 55 4 68 25 91 38 41 78 56 134 50
27 -2 53 -8 57 -12z"/>
<path d="M0 1220 c0 -19 7 -20 164 -20 90 0 171 -3 180 -6 9 -3 16 -16 16 -28
0 -29 27 -66 48 -66 9 0 49 11 87 25 l70 25 496 0 c473 0 500 -1 563 -20 83
-26 158 -86 200 -160 27 -48 31 -66 34 -150 3 -67 9 -100 20 -112 47 -54 217
24 339 154 166 178 207 203 343 203 75 0 93 -4 151 -31 73 -35 142 -92 165
-135 37 -72 5 -138 -128 -265 -220 -210 -499 -366 -787 -439 -203 -51 -257
-55 -799 -55 -552 0 -552 0 -674 61 -32 16 -64 29 -71 29 -22 0 -57 -44 -57
-72 0 -14 -7 -29 -16 -32 -9 -3 -90 -6 -180 -6 -157 0 -164 -1 -164 -20 0 -19
7 -20 200 -20 l200 0 0 61 c0 33 3 59 8 57 4 -2 34 -17 67 -34 126 -66 131
-67 565 -71 588 -7 795 12 1040 94 269 90 557 267 732 450 87 92 118 147 118
208 0 63 -30 109 -111 172 -86 66 -147 87 -259 87 -88 1 -100 -1 -162 -32 -54
-26 -86 -53 -160 -133 -51 -56 -119 -118 -150 -139 -54 -36 -184 -88 -194 -77
-3 2 -1 22 4 44 29 130 -61 308 -191 374 -93 48 -102 49 -638 49 -436 0 -513
-2 -560 -16 -29 -9 -63 -22 -74 -30 -31 -22 -35 -17 -35 41 l0 55 -200 0
c-193 0 -200 -1 -200 -20z"/>
<path d="M133 1160 c-32 -13 -43 -41 -43 -113 0 -87 21 -107 109 -107 52 0 66
4 86 25 21 20 25 34 25 84 0 83 -25 113 -101 117 -30 2 -64 0 -76 -6z m137
-107 l0 -73 -72 0 -73 0 2 72 c1 40 2 73 2 73 1 0 33 0 71 0 l70 0 0 -72z"/>
<path d="M571 1090 c-52 -11 -169 -73 -193 -103 -16 -20 -18 -53 -18 -323 0
-284 1 -303 20 -326 26 -34 204 -123 274 -138 41 -8 196 -10 554 -8 556 5 604
10 829 83 276 91 583 286 734 467 61 73 67 97 40 141 -44 72 -155 127 -254
127 -96 -1 -135 -24 -267 -159 -101 -104 -125 -123 -200 -159 -152 -74 -158
-75 -599 -80 -217 -2 -404 -1 -417 2 -27 7 -33 41 -8 50 9 3 159 6 335 6 l319
0 36 33 c22 20 38 46 44 71 10 44 -1 120 -24 163 -25 49 -98 112 -156 135 -54
22 -63 23 -530 25 -261 1 -495 -3 -519 -7z m1042 -59 c23 -10 57 -31 75 -46
77 -65 104 -197 51 -254 -19 -20 -28 -21 -356 -21 -332 0 -337 0 -360 -22 -31
-29 -30 -71 3 -97 26 -20 37 -21 413 -21 415 1 479 6 602 53 120 45 197 103
293 217 46 55 80 85 117 104 97 48 210 29 299 -51 48 -43 49 -45 36 -71 -20
-38 -178 -189 -267 -254 -194 -142 -421 -245 -656 -298 -146 -32 -353 -42
-798 -38 -404 3 -411 4 -469 27 -33 13 -86 39 -117 57 -32 19 -62 34 -68 34
-8 0 -11 96 -11 315 0 275 2 315 15 315 8 0 41 15 73 33 l57 32 425 5 c520 6
589 4 643 -19z"/>
</g>
</svg>
