<?xml version="1.0" standalone="no"?>
<!DOCTYPE svg PUBLIC "-//W3C//DTD SVG 20010904//EN"
 "http://www.w3.org/TR/2001/REC-SVG-20010904/DTD/svg10.dtd">
<svg version="1.0" xmlns="http://www.w3.org/2000/svg"
 width="225.000000pt" height="225.000000pt" viewBox="0 0 225.000000 225.000000"
 preserveAspectRatio="xMidYMid meet">
<metadata>
Created by potrace 1.10, written by Peter Selinger 2001-2011
</metadata>
<g transform="translate(0.000000,225.000000) scale(0.100000,-0.100000)"
fill="#000000" stroke="none">
<path d="M973 1866 c-51 -9 -51 -10 -46 -42 5 -27 0 -38 -25 -64 -18 -18 -41
-30 -57 -30 -30 0 -85 26 -85 40 0 17 -20 11 -58 -17 -20 -15 -39 -28 -41 -30
-2 -1 1 -8 6 -15 35 -44 13 -111 -43 -134 -31 -13 -39 -13 -66 1 -17 8 -32 14
-33 13 -55 -79 -64 -98 -52 -98 21 0 47 -44 47 -80 0 -22 -10 -41 -30 -62 -26
-25 -37 -30 -64 -25 -33 5 -34 5 -39 -37 -3 -23 -9 -50 -13 -59 -4 -13 -2 -16
9 -11 26 9 78 -46 79 -84 1 -42 -31 -86 -66 -90 -21 -3 -26 -8 -21 -20 3 -9 9
-35 12 -58 5 -42 6 -42 39 -37 27 5 38 0 64 -25 39 -39 41 -87 5 -126 l-26
-28 23 -36 c13 -19 26 -39 29 -44 3 -5 19 -2 34 6 49 25 98 5 121 -49 10 -25
10 -36 -2 -64 -8 -19 -11 -37 -6 -40 5 -3 25 -16 44 -29 l36 -23 26 26 c38 38
96 35 131 -6 18 -23 25 -41 23 -62 -3 -29 -1 -31 50 -42 28 -7 53 -11 53 -9 1
2 2 7 3 12 11 44 26 59 79 76 32 10 86 -23 96 -58 5 -19 13 -30 22 -27 8 2 33
6 56 8 40 5 41 6 36 37 -4 25 1 39 22 64 35 42 93 45 131 7 l25 -25 42 27 c23
15 43 28 45 28 1 1 -5 16 -14 33 -37 75 44 154 118 116 21 -11 33 -13 36 -6 2
6 16 29 33 51 19 28 25 41 15 41 -21 0 -46 45 -46 84 0 45 48 89 94 84 27 -3
32 1 37 27 14 66 11 82 -19 88 -21 4 -33 16 -46 45 -17 38 -17 42 -1 76 12 24
27 38 46 44 32 8 32 7 23 74 -6 46 -7 46 -38 41 -25 -4 -39 1 -64 22 -42 35
-45 93 -7 131 l26 26 -20 31 c-12 18 -24 38 -29 45 -7 10 -15 10 -43 -2 -77
-32 -151 46 -113 119 12 23 12 30 2 37 -7 5 -28 18 -47 30 l-34 21 -16 -22
c-11 -14 -32 -24 -59 -28 -36 -5 -45 -2 -73 26 -26 27 -31 37 -26 65 5 33 5
34 -37 39 -23 3 -50 9 -59 13 -13 5 -17 1 -17 -18 0 -75 -130 -95 -166 -26 -8
15 -14 30 -13 34 1 10 -4 10 -58 0z m310 -74 c3 -23 4 -22 7 8 l2 35 7 -30 c4
-17 3 -36 -3 -44 -9 -11 -8 -13 4 -9 8 3 21 0 27 -8 10 -10 10 -16 -2 -27 -13
-13 -13 -16 1 -21 8 -3 13 -2 11 2 -3 4 1 12 8 19 10 9 14 8 18 -6 3 -14 15
-18 53 -18 35 -1 43 2 29 7 -17 8 -16 9 8 9 16 1 26 5 23 9 -2 4 3 8 12 8 9 1
23 3 31 5 7 2 15 -2 17 -9 1 -7 0 -8 -3 -2 -2 5 -9 7 -15 4 -6 -4 -1 -12 13
-20 13 -7 18 -13 12 -14 -9 0 -11 -10 -6 -31 4 -21 1 -34 -8 -41 -10 -7 -8 -8
9 -5 12 3 19 1 16 -4 -3 -6 0 -16 6 -24 6 -8 9 -19 5 -25 -8 -13 1 -13 26 0
11 6 19 7 18 3 -4 -25 2 -34 21 -28 10 3 28 1 39 -4 14 -8 22 -8 27 1 5 7 3 8
-6 3 -9 -5 -11 -4 -6 4 6 9 11 9 21 1 8 -7 19 -9 26 -5 6 4 3 -4 -6 -19 -10
-15 -15 -29 -11 -33 3 -3 6 -1 6 5 0 7 5 12 10 12 6 0 6 -7 -2 -19 -6 -10 -17
-17 -24 -14 -6 2 -15 0 -19 -6 -3 -6 -2 -11 4 -11 6 0 8 -12 5 -30 -5 -22 -2
-31 11 -36 13 -5 14 -9 3 -15 -11 -7 -11 -9 1 -9 7 0 11 -6 7 -15 -3 -8 -2
-14 2 -13 15 3 42 -15 42 -28 0 -8 9 -14 20 -14 11 0 27 -11 36 -25 16 -24 16
-27 -2 -40 -18 -13 -31 -18 -45 -17 -3 1 -3 -12 -1 -29 3 -17 0 -29 -7 -29 -6
0 -11 -11 -11 -25 0 -14 4 -25 10 -25 5 0 7 -14 5 -31 -3 -22 -1 -29 7 -21 15
15 56 -23 54 -51 -1 -17 -8 -23 -34 -25 -29 -3 -32 -5 -20 -20 11 -14 11 -15
-6 -9 -21 8 -47 -9 -40 -26 2 -7 -6 -17 -18 -22 -24 -11 -25 -17 -9 -119 0 -4
7 -6 14 -3 14 5 40 -27 30 -37 -13 -12 -22 -5 -16 12 6 15 5 15 -10 3 -9 -7
-15 -17 -12 -21 3 -4 -2 -11 -11 -14 -8 -3 -12 -2 -9 4 3 6 1 10 -4 10 -6 0
-11 -4 -11 -9 0 -5 -9 -11 -20 -14 -12 -3 -18 -1 -14 5 4 6 -2 8 -12 6 -11 -2
-18 -9 -17 -16 2 -6 -4 -9 -11 -6 -9 3 -17 -3 -21 -15 -3 -12 -12 -21 -19 -21
-7 0 -18 -12 -25 -26 -10 -22 -9 -25 3 -21 10 4 12 0 9 -14 -3 -10 -10 -19
-15 -19 -5 0 -7 -4 -3 -9 3 -5 -8 -19 -24 -30 l-29 -21 -6 25 c-6 24 -26 36
-26 15 0 -5 5 -10 12 -10 6 0 9 -3 6 -6 -4 -3 -15 -1 -25 4 -10 5 -31 12 -48
15 l-30 6 29 -13 29 -13 -27 -5 c-14 -3 -29 -1 -32 4 -3 4 -10 6 -15 2 -5 -3
-7 -9 -5 -13 3 -4 1 -13 -5 -21 -6 -11 -9 -12 -9 -2 0 7 -5 10 -10 7 -6 -4 -8
-15 -5 -26 7 -21 -10 -27 -18 -6 -3 6 -6 -5 -6 -25 -1 -32 -4 -37 -23 -36 -31
2 -48 16 -48 40 0 15 -5 19 -18 16 -10 -3 -24 2 -31 10 -15 16 -93 9 -100 -9
-4 -14 -54 -59 -65 -59 -13 0 -35 33 -36 54 0 12 -5 16 -15 12 -15 -5 -22 18
-7 27 4 2 2 3 -5 1 -6 -1 -19 4 -30 11 -11 9 -13 14 -5 15 7 0 10 5 6 11 -4 8
-9 8 -17 0 -6 -6 -22 -11 -36 -11 -20 0 -23 2 -11 10 8 5 11 12 7 16 -3 4 -14
1 -23 -7 -13 -11 -18 -11 -21 -2 -3 9 -11 6 -26 -7 -11 -11 -31 -20 -43 -20
-25 0 -40 15 -25 24 5 4 8 24 8 45 -2 40 -32 79 -73 95 -16 6 -16 9 -4 17 11
7 6 8 -14 3 -21 -5 -27 -4 -22 5 10 15 -10 14 -26 -2 -22 -22 -24 -23 -42 -8
-16 14 -16 15 6 28 13 8 15 12 6 9 -19 -6 -26 18 -9 28 5 3 7 16 5 29 -2 12
-2 16 2 10 3 -7 10 -13 15 -13 6 0 5 9 -1 21 -7 11 -9 32 -5 46 5 20 3 24 -9
20 -9 -4 -17 1 -21 14 -4 10 -22 26 -41 34 -19 8 -34 19 -34 24 0 6 -10 11
-22 11 -13 0 -18 4 -13 8 6 4 11 16 13 26 4 24 29 49 41 42 5 -3 7 3 4 14 -3
11 -1 20 5 20 16 0 23 45 10 81 -6 19 -24 44 -39 57 -32 26 -37 47 -13 56 8 3
12 11 8 17 -4 8 0 9 15 4 15 -4 23 -1 27 10 4 9 13 14 20 11 7 -3 16 -1 19 4
3 4 -1 11 -7 13 -8 4 -7 6 4 6 12 1 15 7 10 24 -4 18 -3 20 9 10 12 -9 14 -4
14 32 0 24 -3 41 -7 39 -4 -3 -12 5 -19 17 -8 17 -8 23 2 30 10 6 10 11 1 22
-12 14 -7 27 10 27 5 0 6 -4 3 -10 -3 -5 -1 -10 4 -10 6 0 11 5 11 11 0 7 17
10 45 7 27 -2 40 1 35 6 -6 6 -2 14 9 20 56 34 81 54 71 58 -17 5 -20 86 -3
93 8 2 11 11 8 17 -4 7 0 6 7 -4 10 -11 19 -13 30 -7 12 7 22 4 36 -11 23 -25
99 -26 79 -1 -10 11 -8 13 11 7 16 -6 22 -3 22 8 0 9 11 23 26 32 15 10 23 23
19 32 -7 18 12 42 32 42 17 0 64 -35 64 -47 -1 -13 59 -29 91 -25 16 2 41 17
56 33 15 16 33 29 39 29 7 0 13 5 13 11 0 22 29 -12 33 -39z"/>
<path d="M912 1599 c-13 -5 -28 -7 -33 -4 -12 8 -69 -23 -70 -38 -1 -6 -5 -1
-9 13 -7 23 -8 23 -9 3 -1 -12 -6 -25 -11 -28 -6 -4 -8 -11 -5 -16 4 -5 0 -9
-7 -9 -7 0 -20 -10 -28 -22 -12 -19 -15 -84 -17 -367 -2 -337 -2 -345 18 -359
12 -8 19 -22 16 -32 -2 -9 4 -22 14 -29 11 -6 20 -24 20 -39 1 -17 3 -20 6 -9
5 18 18 23 27 8 4 -5 0 -11 -6 -14 -7 -2 1 -4 17 -3 17 1 36 5 44 10 9 6 12 5
8 -1 -8 -13 15 -23 50 -23 19 0 24 4 19 16 -5 14 -1 15 26 9 57 -12 63 -11 66
13 3 19 6 21 18 11 8 -6 14 -8 14 -3 0 4 9 -2 20 -14 21 -23 52 -27 110 -15
24 4 36 14 44 35 6 15 14 28 18 28 4 0 8 12 8 28 1 27 27 96 30 77 0 -5 5 -29
9 -52 5 -24 4 -43 0 -43 -5 0 -9 12 -10 28 0 15 -3 21 -6 14 -7 -17 6 -64 15
-58 5 3 14 -10 20 -28 11 -29 18 -34 55 -39 24 -3 43 -2 45 4 3 6 9 5 18 -2
11 -9 14 -9 14 0 0 7 5 9 10 6 6 -3 10 1 10 9 0 10 9 16 22 16 20 0 20 1 5 18
-19 21 -22 37 -5 26 6 -4 8 -3 4 4 -3 6 -7 45 -7 86 -1 42 -5 76 -9 76 -4 0
-6 -10 -3 -22 3 -13 3 -20 -1 -16 -4 3 -10 43 -12 88 -2 45 -9 111 -15 148
-24 157 -30 211 -33 287 -2 44 -7 98 -12 120 -10 52 -51 96 -93 100 -17 1 -34
5 -37 8 -3 3 -18 1 -32 -4 -18 -7 -28 -6 -34 3 -7 10 -9 9 -5 -2 2 -8 -4 -22
-13 -30 -9 -8 -20 -35 -24 -59 -4 -24 -10 -49 -14 -55 -7 -11 -12 -67 -12
-146 0 -32 -3 -41 -9 -30 -16 23 -26 2 -12 -24 8 -13 11 -30 8 -38 -3 -8 -6
-5 -6 7 -1 15 -3 17 -10 6 -5 -7 -4 -25 2 -40 8 -21 6 -35 -6 -61 -9 -18 -14
-44 -12 -59 5 -22 4 -23 -4 -6 -5 11 -12 28 -15 38 -7 23 -52 39 -98 35 -21
-2 -40 1 -42 7 -2 5 -5 4 -5 -4 -1 -11 -4 -11 -18 0 -15 12 -16 12 -10 -3 3
-10 2 -18 -3 -18 -6 0 -9 37 -8 88 1 72 2 79 8 42 6 -40 7 -41 8 -11 2 28 5
32 20 25 9 -4 34 -9 55 -12 20 -2 37 -8 37 -13 0 -5 5 -9 11 -9 5 0 7 5 4 10
-3 6 -2 10 3 10 6 0 12 -7 16 -15 3 -8 11 -15 18 -14 10 0 10 2 1 6 -17 6 -16
28 1 45 14 15 28 180 14 172 -4 -3 -5 2 -2 10 4 9 1 16 -6 16 -7 0 -10 8 -7
20 3 13 1 18 -6 13 -6 -4 -8 0 -5 8 4 10 -5 23 -23 35 -16 10 -27 24 -25 31 8
20 -85 37 -122 22z m87 -45 c60 -24 81 -74 81 -192 l0 -92 -60 0 -59 0 -3 81
c-2 65 -7 84 -20 93 -13 8 -23 8 -35 0 -17 -10 -18 -37 -18 -325 l0 -314 24
-3 c13 -2 27 0 31 5 14 14 15 188 2 185 -8 -1 -12 17 -12 55 l0 58 76 1 76 0
-4 -160 c-3 -182 -14 -216 -78 -248 -44 -23 -124 -22 -170 0 -68 33 -70 46
-70 422 0 307 2 338 19 370 39 75 129 101 220 64z m379 -19 c5 -52 72 -564 92
-708 11 -76 20 -140 20 -143 0 -2 -29 -4 -64 -4 -73 0 -70 -6 -82 140 l-7 80
-37 0 -37 0 -12 -88 c-6 -49 -11 -98 -11 -110 0 -20 -5 -22 -65 -22 -76 0 -71
-14 -49 150 8 63 28 216 44 340 16 124 35 265 42 313 l12 88 75 -3 76 -3 3
-30z"/>
<path d="M1250 1108 c-23 -25 -25 -37 -8 -73 26 -58 111 -38 116 27 2 28 -2
40 -20 52 -31 22 -64 20 -88 -6z m46 -13 c-3 -10 1 -15 12 -16 16 -1 16 -2 -1
-6 -9 -2 -15 -8 -12 -13 3 -5 13 -6 22 -3 15 6 16 5 3 -9 -8 -9 -16 -12 -18
-7 -2 5 -10 9 -18 9 -9 0 -12 -5 -8 -12 5 -7 3 -8 -5 -4 -9 6 -8 12 4 26 12
13 13 20 5 25 -9 6 -9 10 1 16 19 12 22 11 15 -6z"/>
</g>
</svg>
