<?xml version="1.0" standalone="no"?>
<!DOCTYPE svg PUBLIC "-//W3C//DTD SVG 20010904//EN"
 "http://www.w3.org/TR/2001/REC-SVG-20010904/DTD/svg10.dtd">
<svg version="1.0" xmlns="http://www.w3.org/2000/svg"
 width="300.000000pt" height="300.000000pt" viewBox="0 0 300.000000 300.000000"
 preserveAspectRatio="xMidYMid meet">
<metadata>
Created by potrace 1.10, written by Peter Selinger 2001-2011
</metadata>
<g transform="translate(0.000000,300.000000) scale(0.100000,-0.100000)"
fill="#000000" stroke="none">
<path d="M1425 2796 c-43 -20 -74 -53 -96 -100 -25 -55 -24 -93 6 -152 28 -57
87 -97 133 -92 27 3 27 3 -13 27 -22 14 -50 36 -63 50 -66 75 -39 191 53 227
62 23 109 12 157 -36 35 -34 38 -42 38 -91 0 -65 -18 -95 -80 -140 -25 -17
-49 -35 -53 -39 -17 -15 70 7 101 26 38 22 82 103 82 149 0 46 -44 126 -86
154 -44 30 -133 39 -179 17z"/>
<path d="M1170 2414 c-93 -16 -259 -71 -385 -128 -98 -44 -146 -46 -255 -9
-77 26 -81 26 -114 10 -66 -31 -90 -111 -52 -169 19 -29 101 -68 158 -76 21
-2 38 -6 38 -8 0 -2 -33 -68 -74 -147 -41 -78 -124 -239 -185 -357 l-110 -215
-38 -3 c-46 -4 -64 -24 -53 -60 37 -130 169 -238 350 -288 91 -26 319 -26 410
-1 181 50 310 153 350 280 15 48 1 67 -49 67 -36 0 -37 2 -78 83 -60 117 -247
479 -293 564 -21 39 -36 74 -32 77 3 3 22 6 43 6 40 0 130 26 309 88 63 22
134 43 158 46 l42 6 0 -714 0 -714 -34 -6 c-73 -14 -146 -94 -146 -160 l0 -26
-123 0 c-100 0 -129 -3 -157 -19 -43 -22 -89 -85 -96 -131 l-6 -35 751 0 c698
0 751 1 751 17 0 53 -51 119 -115 149 -31 15 -64 19 -152 19 l-113 0 0 26 c0
66 -61 136 -136 156 l-44 12 0 713 0 713 43 -6 c23 -3 94 -24 157 -46 179 -62
269 -88 309 -88 21 0 40 -3 43 -6 4 -3 -11 -38 -32 -77 -46 -85 -233 -447
-293 -564 -41 -81 -42 -83 -78 -83 -50 0 -64 -19 -49 -67 40 -127 169 -230
350 -280 91 -25 319 -25 410 1 181 50 313 158 350 288 11 36 -7 56 -53 60
l-38 3 -110 215 c-61 118 -144 279 -185 357 -41 79 -74 145 -74 147 0 2 18 6
41 9 22 3 66 18 97 34 48 24 59 34 70 67 15 46 5 86 -30 123 -34 36 -74 38
-163 8 -107 -36 -152 -32 -280 27 -195 90 -309 117 -515 124 -130 5 -143 4
-126 -10 10 -8 44 -17 75 -20 272 -28 376 -53 554 -134 127 -57 193 -65 291
-33 36 11 79 21 95 21 55 0 83 -79 41 -118 -11 -10 -46 -27 -78 -37 -31 -11
-68 -29 -82 -42 -32 -30 -37 -17 165 -407 162 -314 201 -376 237 -376 45 0 1
-94 -73 -158 -52 -45 -172 -98 -261 -116 -245 -50 -526 30 -627 178 -46 67
-48 83 -9 99 18 8 40 23 49 33 19 22 356 672 360 694 5 28 -12 58 -39 68 -15
5 -54 15 -87 22 -33 7 -121 35 -195 63 -92 34 -156 51 -201 54 -108 9 -99 74
-99 -748 0 -702 0 -706 21 -725 11 -10 44 -30 72 -44 43 -21 56 -34 77 -77 44
-89 50 -93 154 -93 108 0 150 -10 188 -47 58 -55 86 -53 -662 -53 -737 0 -709
-2 -674 48 29 42 65 52 182 52 124 0 127 1 172 93 21 43 34 56 77 77 28 14 61
34 72 44 21 19 21 23 21 725 0 822 9 757 -99 748 -45 -3 -109 -20 -201 -54
-118 -44 -167 -58 -267 -79 -33 -6 -64 -44 -57 -68 9 -33 345 -679 363 -700 9
-10 31 -25 49 -33 39 -16 37 -32 -9 -99 -152 -222 -641 -259 -884 -67 -72 57
-122 163 -77 163 24 0 62 42 99 110 77 140 323 629 323 642 0 24 -42 53 -100
71 -67 20 -100 48 -100 85 0 71 49 88 150 52 77 -27 161 -25 230 4 255 110
320 129 487 146 175 18 189 20 209 35 17 13 6 14 -96 14 -63 -1 -153 -7 -200
-15z"/>
<path d="M617 1843 c-30 -35 -267 -492 -267 -517 0 -52 20 -56 308 -56 l263 0
24 24 c22 22 23 29 14 53 -17 46 -230 445 -256 481 -27 36 -61 42 -86 15z
m163 -235 c68 -128 131 -245 141 -260 11 -14 19 -29 19 -32 0 -3 -129 -6 -286
-6 l-286 0 20 33 c31 50 243 448 253 474 5 13 10 23 13 23 2 0 59 -105 126
-232z"/>
<path d="M2297 1828 c-23 -31 -200 -359 -249 -461 l-23 -49 28 -24 28 -24 262
0 c221 0 266 2 285 16 31 21 28 53 -11 126 -19 35 -76 142 -127 238 -51 96
-100 183 -108 193 -24 27 -58 21 -85 -15z m63 -9 c0 -9 213 -413 252 -476 l20
-33 -286 0 c-157 0 -286 3 -286 6 0 3 8 18 19 32 10 15 73 132 141 259 106
202 140 253 140 212z"/>
</g>
</svg>
